<?xml version="1.0" encoding="UTF-8" standalone="no"?>
<!-- Created with Inkscape (http://www.inkscape.org/) -->

<svg
   width="155.70329mm"
   height="140.06154mm"
   viewBox="0 0 155.70329 140.06154"
   version="1.1"
   id="svg5"
   inkscape:version="1.1.2 (0a00cf5339, 2022-02-04)"
   sodipodi:docname="plane-shadow.svg"
   inkscape:export-filename="/home/freidrichen/ojobb/rust/bevy-jam-2/assets/plane.png"
   inkscape:export-xdpi="16.31308"
   inkscape:export-ydpi="16.31308"
   xmlns:inkscape="http://www.inkscape.org/namespaces/inkscape"
   xmlns:sodipodi="http://sodipodi.sourceforge.net/DTD/sodipodi-0.dtd"
   xmlns="http://www.w3.org/2000/svg"
   xmlns:svg="http://www.w3.org/2000/svg">
  <sodipodi:namedview
     id="namedview7"
     pagecolor="#ffffff"
     bordercolor="#666666"
     borderopacity="1.0"
     inkscape:pageshadow="2"
     inkscape:pageopacity="0.0"
     inkscape:pagecheckerboard="0"
     inkscape:document-units="mm"
     showgrid="false"
     inkscape:zoom="0.52304795"
     inkscape:cx="180.67177"
     inkscape:cy="235.16008"
     inkscape:window-width="1920"
     inkscape:window-height="1012"
     inkscape:window-x="0"
     inkscape:window-y="32"
     inkscape:window-maximized="1"
     inkscape:current-layer="layer1" />
  <defs
     id="defs2">
    <inkscape:path-effect
       effect="bspline"
       id="path-effect2347"
       is_visible="true"
       lpeversion="1"
       weight="33.333333"
       steps="2"
       helper_size="0"
       apply_no_weight="true"
       apply_with_weight="true"
       only_selected="false" />
    <inkscape:path-effect
       effect="bspline"
       id="path-effect2343"
       is_visible="true"
       lpeversion="1"
       weight="33.333333"
       steps="2"
       helper_size="0"
       apply_no_weight="true"
       apply_with_weight="true"
       only_selected="false" />
    <inkscape:path-effect
       effect="bspline"
       id="path-effect2347-3"
       is_visible="true"
       lpeversion="1"
       weight="33.333333"
       steps="2"
       helper_size="0"
       apply_no_weight="true"
       apply_with_weight="true"
       only_selected="false" />
  </defs>
  <g
     inkscape:label="Layer 1"
     inkscape:groupmode="layer"
     id="layer1"
     transform="translate(-33.106815,-97.954857)">
    <path
       id="rect846"
       style="opacity:0.5;fill:#000000;fill-opacity:0.997097;fill-rule:evenodd;stroke:#000000;stroke-width:7.55906;stroke-linecap:round;stroke-linejoin:round"
       d="M 270.10938 3.7792969 C 258.09993 3.7792969 248.43164 14.875173 248.43164 28.658203 L 248.43164 211.97852 L 88.525391 211.97852 L 88.525391 135.14062 C 88.525391 121.3576 78.857101 110.26172 66.847656 110.26172 L 25.84375 110.26172 C 13.834301 110.26172 4.1660156 121.3576 4.1660156 135.14062 L 4.1660156 398.86719 C 4.1660156 412.65022 13.834301 423.74609 25.84375 423.74609 L 66.847656 423.74609 C 78.857101 423.74609 88.525391 412.65022 88.525391 398.86719 L 88.525391 346.27539 L 248.43164 346.27539 L 248.43164 500.70703 C 248.43164 514.49006 258.09993 525.58789 270.10938 525.58789 L 367.33984 525.58789 C 379.34929 525.58789 389.01758 514.49006 389.01758 500.70703 L 389.01758 346.27539 L 529.80078 346.27539 C 541.81023 346.27539 551.47852 335.17951 551.47852 321.39648 L 551.47852 236.85742 C 551.47852 223.07439 541.81023 211.97852 529.80078 211.97852 L 389.01758 211.97852 L 389.01758 28.658203 C 389.01758 14.875173 379.34929 3.7792969 367.33984 3.7792969 L 270.10938 3.7792969 z "
       transform="matrix(0.26458333,0,0,0.26458333,33.106815,97.954857)"
       inkscape:export-filename="/home/freidrichen/ojobb/rust/bevy-jam-2/assets/plane-shadow.png"
       inkscape:export-xdpi="16.31308"
       inkscape:export-ydpi="16.31308" />
    <g
       id="g2842"
       transform="translate(0.49132227,-0.68640212)"
       style="opacity:0.5;fill:#000000;stroke:#000000"
       inkscape:export-filename="/home/freidrichen/ojobb/rust/bevy-jam-2/assets/plane-shadow.png"
       inkscape:export-xdpi="16.31308"
       inkscape:export-ydpi="16.31308">
      <path
         style="fill:#000000;stroke:#000000;stroke-width:2;stroke-linecap:butt;stroke-linejoin:miter;stroke-miterlimit:4;stroke-dasharray:none;stroke-opacity:1"
         d="m 183.94868,172.24286 c -1.36193,-4.61677 -2.71755,-9.21212 -2.80878,-14.29375 -0.0912,-5.08163 1.09718,-10.59821 2.61232,-10.95377 1.51513,-0.35556 3.35682,4.44986 3.54955,9.46463 0.19273,5.01476 -1.3122,10.41425 -2.79208,15.72382"
         id="path2345"
         sodipodi:nodetypes="cazac" />
      <path
         style="fill:#000000;stroke:#000000;stroke-width:2;stroke-linecap:butt;stroke-linejoin:miter;stroke-miterlimit:4;stroke-dasharray:none;stroke-opacity:1"
         d="m 183.94868,172.24286 c -1.36193,4.61677 -2.71755,9.21212 -2.80878,14.29375 -0.0912,5.08163 1.09718,10.59821 2.61231,10.95377 1.51514,0.35556 3.35683,-4.44987 3.54956,-9.46464 0.19273,-5.01476 -1.31221,-10.41425 -2.79208,-15.72381"
         id="path2345-6"
         sodipodi:nodetypes="cazac" />
    </g>
  </g>
</svg>
